<mxfile host="65bd71144e" pages="2">
    <diagram id="ccOVwTJLni_B6k8jklq0" name="Casos de Uso">
        <mxGraphModel dx="820" dy="567" grid="0" gridSize="10" guides="1" tooltips="1" connect="1" arrows="1" fold="1" page="1" pageScale="1" pageWidth="827" pageHeight="1169" background="#ffffff" math="0" shadow="0">
            <root>
                <mxCell id="0"/>
                <mxCell id="1" parent="0"/>
                <mxCell id="IhjjagdQ4d-OvM7gtka2-1" value="" style="rounded=0;whiteSpace=wrap;html=1;" parent="1" vertex="1">
                    <mxGeometry x="135" y="26" width="557" height="1503" as="geometry"/>
                </mxCell>
                <mxCell id="IhjjagdQ4d-OvM7gtka2-2" value="Funcionário&lt;br&gt;" style="shape=umlActor;verticalLabelPosition=bottom;verticalAlign=top;html=1;outlineConnect=0;" parent="1" vertex="1">
                    <mxGeometry x="58" y="961.02" width="63" height="126" as="geometry"/>
                </mxCell>
                <mxCell id="IhjjagdQ4d-OvM7gtka2-3" value="Cliente" style="shape=umlActor;verticalLabelPosition=bottom;verticalAlign=top;html=1;outlineConnect=0;" parent="1" vertex="1">
                    <mxGeometry x="58" y="588.02" width="63" height="126" as="geometry"/>
                </mxCell>
                <mxCell id="IhjjagdQ4d-OvM7gtka2-4" value="Administrador&lt;br&gt;" style="shape=umlActor;verticalLabelPosition=bottom;verticalAlign=top;html=1;outlineConnect=0;" parent="1" vertex="1">
                    <mxGeometry x="58" y="1350.02" width="63" height="126" as="geometry"/>
                </mxCell>
                <mxCell id="IhjjagdQ4d-OvM7gtka2-5" value="Registar" style="ellipse;whiteSpace=wrap;html=1;" parent="1" vertex="1">
                    <mxGeometry x="225.75" y="382" width="79.5" height="53" as="geometry"/>
                </mxCell>
                <mxCell id="IhjjagdQ4d-OvM7gtka2-6" value="" style="endArrow=none;html=1;rounded=0;exitX=0.75;exitY=0.1;exitDx=0;exitDy=0;exitPerimeter=0;entryX=0;entryY=0.5;entryDx=0;entryDy=0;" parent="1" source="IhjjagdQ4d-OvM7gtka2-3" target="IhjjagdQ4d-OvM7gtka2-5" edge="1">
                    <mxGeometry width="50" height="50" relative="1" as="geometry">
                        <mxPoint x="155" y="622.02" as="sourcePoint"/>
                        <mxPoint x="202.0335" y="558" as="targetPoint"/>
                    </mxGeometry>
                </mxCell>
                <mxCell id="IhjjagdQ4d-OvM7gtka2-7" value="Encomendar&lt;br&gt;Produtos" style="ellipse;whiteSpace=wrap;html=1;" parent="1" vertex="1">
                    <mxGeometry x="203.25" y="658" width="102" height="73.98" as="geometry"/>
                </mxCell>
                <mxCell id="IhjjagdQ4d-OvM7gtka2-9" value="&lt;b style=&quot;line-height: 1.2&quot;&gt;&lt;font style=&quot;font-size: 17px&quot;&gt;Gestão Dress Code&lt;/font&gt;&lt;/b&gt;" style="text;html=1;strokeColor=none;fillColor=none;align=center;verticalAlign=middle;whiteSpace=wrap;rounded=0;" parent="1" vertex="1">
                    <mxGeometry x="334" y="36" width="160" height="30" as="geometry"/>
                </mxCell>
                <mxCell id="IhjjagdQ4d-OvM7gtka2-11" value="" style="endArrow=none;html=1;rounded=0;fontSize=17;exitX=0.75;exitY=0.1;exitDx=0;exitDy=0;exitPerimeter=0;entryX=-0.013;entryY=0.377;entryDx=0;entryDy=0;entryPerimeter=0;" parent="1" source="IhjjagdQ4d-OvM7gtka2-3" target="IhjjagdQ4d-OvM7gtka2-7" edge="1">
                    <mxGeometry width="50" height="50" relative="1" as="geometry">
                        <mxPoint x="155" y="687.02" as="sourcePoint"/>
                        <mxPoint x="205" y="637.02" as="targetPoint"/>
                    </mxGeometry>
                </mxCell>
                <mxCell id="IhjjagdQ4d-OvM7gtka2-12" value="Editar&lt;br&gt;Perfil" style="ellipse;whiteSpace=wrap;html=1;" parent="1" vertex="1">
                    <mxGeometry x="232.25" y="481" width="79.5" height="53" as="geometry"/>
                </mxCell>
                <mxCell id="IhjjagdQ4d-OvM7gtka2-14" value="Consultar detalhes da&lt;br&gt;encomenda" style="ellipse;whiteSpace=wrap;html=1;" parent="1" vertex="1">
                    <mxGeometry x="441" y="651.5" width="101" height="86.98" as="geometry"/>
                </mxCell>
                <mxCell id="IhjjagdQ4d-OvM7gtka2-16" value="" style="endArrow=none;dashed=1;html=1;rounded=0;fontSize=17;entryX=0.048;entryY=0.345;entryDx=0;entryDy=0;entryPerimeter=0;exitX=0.969;exitY=0.34;exitDx=0;exitDy=0;exitPerimeter=0;" parent="1" source="IhjjagdQ4d-OvM7gtka2-7" target="IhjjagdQ4d-OvM7gtka2-14" edge="1">
                    <mxGeometry width="50" height="50" relative="1" as="geometry">
                        <mxPoint x="292" y="213" as="sourcePoint"/>
                        <mxPoint x="342" y="163" as="targetPoint"/>
                    </mxGeometry>
                </mxCell>
                <mxCell id="IhjjagdQ4d-OvM7gtka2-17" value="&amp;lt;&lt;font style=&quot;font-size: 16px&quot;&gt;&amp;lt;&lt;/font&gt;include&lt;font style=&quot;font-size: 16px&quot;&gt;&amp;gt;&lt;/font&gt;&amp;gt;" style="text;html=1;strokeColor=none;fillColor=none;align=center;verticalAlign=middle;whiteSpace=wrap;rounded=0;fontSize=17;rotation=0;" parent="1" vertex="1">
                    <mxGeometry x="329.5" y="660" width="84" height="23" as="geometry"/>
                </mxCell>
                <mxCell id="IhjjagdQ4d-OvM7gtka2-18" value="Consultar&lt;br&gt;Produtos" style="ellipse;whiteSpace=wrap;html=1;" parent="1" vertex="1">
                    <mxGeometry x="225.75" y="577" width="79.5" height="53" as="geometry"/>
                </mxCell>
                <mxCell id="IhjjagdQ4d-OvM7gtka2-19" value="" style="endArrow=none;html=1;rounded=0;fontSize=16;entryX=0;entryY=0.5;entryDx=0;entryDy=0;exitX=0.75;exitY=0.1;exitDx=0;exitDy=0;exitPerimeter=0;" parent="1" source="IhjjagdQ4d-OvM7gtka2-3" target="IhjjagdQ4d-OvM7gtka2-12" edge="1">
                    <mxGeometry width="50" height="50" relative="1" as="geometry">
                        <mxPoint x="139" y="663.02" as="sourcePoint"/>
                        <mxPoint x="189" y="613.02" as="targetPoint"/>
                    </mxGeometry>
                </mxCell>
                <mxCell id="IhjjagdQ4d-OvM7gtka2-21" value="&lt;span style=&quot;color: rgb(0 , 0 , 0) ; font-family: &amp;#34;helvetica&amp;#34; ; font-size: 12px ; font-style: normal ; font-weight: 400 ; letter-spacing: normal ; text-align: center ; text-indent: 0px ; text-transform: none ; word-spacing: 0px ; background-color: rgb(248 , 249 , 250) ; display: inline ; float: none&quot;&gt;Servidor&lt;/span&gt;" style="text;whiteSpace=wrap;html=1;fontSize=16;" parent="1" vertex="1">
                    <mxGeometry x="738.5" y="510" width="57" height="35" as="geometry"/>
                </mxCell>
                <mxCell id="IhjjagdQ4d-OvM7gtka2-22" value="" style="sketch=0;outlineConnect=0;fontColor=#232F3E;gradientColor=none;fillColor=#232F3D;strokeColor=none;dashed=0;verticalLabelPosition=bottom;verticalAlign=top;align=center;html=1;fontSize=12;fontStyle=0;aspect=fixed;pointerEvents=1;shape=mxgraph.aws4.traditional_server;" parent="1" vertex="1">
                    <mxGeometry x="735" y="448.8" width="55.5" height="96.2" as="geometry"/>
                </mxCell>
                <mxCell id="cnAyEao9ffWCqPPbkSO4-3" value="Configurar a página" style="ellipse;whiteSpace=wrap;html=1;" parent="1" vertex="1">
                    <mxGeometry x="204" y="1259" width="101.25" height="69" as="geometry"/>
                </mxCell>
                <mxCell id="cnAyEao9ffWCqPPbkSO4-4" value="" style="endArrow=none;html=1;exitX=0.75;exitY=0.1;exitDx=0;exitDy=0;exitPerimeter=0;entryX=0;entryY=0.5;entryDx=0;entryDy=0;" parent="1" source="IhjjagdQ4d-OvM7gtka2-4" target="cnAyEao9ffWCqPPbkSO4-3" edge="1">
                    <mxGeometry width="50" height="50" relative="1" as="geometry">
                        <mxPoint x="420" y="1497.02" as="sourcePoint"/>
                        <mxPoint x="470" y="1447.02" as="targetPoint"/>
                    </mxGeometry>
                </mxCell>
                <mxCell id="cnAyEao9ffWCqPPbkSO4-5" value="Gerênciar dados" style="ellipse;whiteSpace=wrap;html=1;" parent="1" vertex="1">
                    <mxGeometry x="219" y="1383.52" width="106" height="68.48" as="geometry"/>
                </mxCell>
                <mxCell id="cnAyEao9ffWCqPPbkSO4-6" value="Verificar disponibilidade" style="ellipse;whiteSpace=wrap;html=1;" parent="1" vertex="1">
                    <mxGeometry x="224.07" y="775" width="95.87" height="69" as="geometry"/>
                </mxCell>
                <mxCell id="cnAyEao9ffWCqPPbkSO4-7" value="" style="endArrow=none;html=1;exitX=0.75;exitY=0.1;exitDx=0;exitDy=0;exitPerimeter=0;entryX=0;entryY=0.5;entryDx=0;entryDy=0;" parent="1" source="IhjjagdQ4d-OvM7gtka2-2" target="cnAyEao9ffWCqPPbkSO4-6" edge="1">
                    <mxGeometry width="50" height="50" relative="1" as="geometry">
                        <mxPoint x="420" y="858.02" as="sourcePoint"/>
                        <mxPoint x="470" y="808.02" as="targetPoint"/>
                    </mxGeometry>
                </mxCell>
                <mxCell id="cnAyEao9ffWCqPPbkSO4-8" value="" style="endArrow=none;html=1;exitX=1;exitY=0.3333333333333333;exitDx=0;exitDy=0;exitPerimeter=0;entryX=0;entryY=0.5;entryDx=0;entryDy=0;" parent="1" source="IhjjagdQ4d-OvM7gtka2-4" target="cnAyEao9ffWCqPPbkSO4-5" edge="1">
                    <mxGeometry width="50" height="50" relative="1" as="geometry">
                        <mxPoint x="420" y="1490.02" as="sourcePoint"/>
                        <mxPoint x="470" y="1440.02" as="targetPoint"/>
                    </mxGeometry>
                </mxCell>
                <mxCell id="cnAyEao9ffWCqPPbkSO4-9" value="Consultar encomendas" style="ellipse;whiteSpace=wrap;html=1;" parent="1" vertex="1">
                    <mxGeometry x="212" y="869" width="93.25" height="64" as="geometry"/>
                </mxCell>
                <mxCell id="cnAyEao9ffWCqPPbkSO4-11" value="" style="endArrow=none;html=1;exitX=0.75;exitY=0.1;exitDx=0;exitDy=0;exitPerimeter=0;entryX=0;entryY=0.5;entryDx=0;entryDy=0;" parent="1" source="IhjjagdQ4d-OvM7gtka2-2" target="cnAyEao9ffWCqPPbkSO4-9" edge="1">
                    <mxGeometry width="50" height="50" relative="1" as="geometry">
                        <mxPoint x="420" y="963.02" as="sourcePoint"/>
                        <mxPoint x="470" y="913.02" as="targetPoint"/>
                    </mxGeometry>
                </mxCell>
                <mxCell id="cnAyEao9ffWCqPPbkSO4-12" value="Ver fichas de utilizadores" style="ellipse;whiteSpace=wrap;html=1;" parent="1" vertex="1">
                    <mxGeometry x="204" y="968" width="90.25" height="64" as="geometry"/>
                </mxCell>
                <mxCell id="cnAyEao9ffWCqPPbkSO4-13" value="" style="endArrow=none;html=1;exitX=0.75;exitY=0.1;exitDx=0;exitDy=0;exitPerimeter=0;entryX=0;entryY=0.5;entryDx=0;entryDy=0;" parent="1" source="IhjjagdQ4d-OvM7gtka2-2" target="cnAyEao9ffWCqPPbkSO4-12" edge="1">
                    <mxGeometry width="50" height="50" relative="1" as="geometry">
                        <mxPoint x="420" y="850.02" as="sourcePoint"/>
                        <mxPoint x="470" y="800.02" as="targetPoint"/>
                    </mxGeometry>
                </mxCell>
                <mxCell id="cnAyEao9ffWCqPPbkSO4-14" value="Adicionar/Eliminar artigos do website" style="ellipse;whiteSpace=wrap;html=1;" parent="1" vertex="1">
                    <mxGeometry x="192.75" y="1084" width="123.75" height="73.98" as="geometry"/>
                </mxCell>
                <mxCell id="3" value="" style="endArrow=none;html=1;entryX=0;entryY=0;entryDx=0;entryDy=0;exitX=0.75;exitY=0.1;exitDx=0;exitDy=0;exitPerimeter=0;" parent="1" source="IhjjagdQ4d-OvM7gtka2-2" target="cnAyEao9ffWCqPPbkSO4-14" edge="1">
                    <mxGeometry width="50" height="50" relative="1" as="geometry">
                        <mxPoint x="127" y="1051.02" as="sourcePoint"/>
                        <mxPoint x="177" y="1001.02" as="targetPoint"/>
                    </mxGeometry>
                </mxCell>
                <mxCell id="4" value="Validar e registar acesso" style="ellipse;whiteSpace=wrap;html=1;" parent="1" vertex="1">
                    <mxGeometry x="494" y="464.9" width="116" height="64" as="geometry"/>
                </mxCell>
                <mxCell id="6" value="" style="endArrow=none;html=1;exitX=1;exitY=0.5;exitDx=0;exitDy=0;" parent="1" source="4" target="IhjjagdQ4d-OvM7gtka2-22" edge="1">
                    <mxGeometry width="50" height="50" relative="1" as="geometry">
                        <mxPoint x="229" y="585" as="sourcePoint"/>
                        <mxPoint x="279" y="535" as="targetPoint"/>
                    </mxGeometry>
                </mxCell>
                <mxCell id="lpoRtROx9iUJPAcO76Ek-7" value="Extends" style="endArrow=block;endSize=16;endFill=0;html=1;rounded=0;fontSize=1;exitX=0.5;exitY=0;exitDx=0;exitDy=0;exitPerimeter=0;" edge="1" parent="1" source="IhjjagdQ4d-OvM7gtka2-2">
                    <mxGeometry width="160" relative="1" as="geometry">
                        <mxPoint x="84" y="941.02" as="sourcePoint"/>
                        <mxPoint x="87" y="735.02" as="targetPoint"/>
                    </mxGeometry>
                </mxCell>
                <mxCell id="lpoRtROx9iUJPAcO76Ek-8" value="Extends" style="endArrow=block;endSize=16;endFill=0;html=1;rounded=0;fontSize=1;exitX=0.5;exitY=0;exitDx=0;exitDy=0;exitPerimeter=0;" edge="1" parent="1" source="IhjjagdQ4d-OvM7gtka2-4">
                    <mxGeometry width="160" relative="1" as="geometry">
                        <mxPoint x="67" y="1298.02" as="sourcePoint"/>
                        <mxPoint x="86" y="1111.02" as="targetPoint"/>
                    </mxGeometry>
                </mxCell>
                <mxCell id="lpoRtROx9iUJPAcO76Ek-10" value="Visitante" style="shape=umlActor;verticalLabelPosition=bottom;verticalAlign=top;html=1;outlineConnect=0;" vertex="1" parent="1">
                    <mxGeometry x="58" y="153" width="63" height="126" as="geometry"/>
                </mxCell>
                <mxCell id="lpoRtROx9iUJPAcO76Ek-12" value="Extends" style="endArrow=block;endSize=16;endFill=0;html=1;rounded=0;fontSize=1;exitX=0.5;exitY=0;exitDx=0;exitDy=0;exitPerimeter=0;" edge="1" parent="1" source="IhjjagdQ4d-OvM7gtka2-3">
                    <mxGeometry width="160" relative="1" as="geometry">
                        <mxPoint x="42" y="400" as="sourcePoint"/>
                        <mxPoint x="90" y="301" as="targetPoint"/>
                    </mxGeometry>
                </mxCell>
                <mxCell id="lpoRtROx9iUJPAcO76Ek-13" value="Ver artigos do website" style="ellipse;whiteSpace=wrap;html=1;fontSize=12;" vertex="1" parent="1">
                    <mxGeometry x="232" y="141" width="120" height="65" as="geometry"/>
                </mxCell>
                <mxCell id="lpoRtROx9iUJPAcO76Ek-14" value="" style="endArrow=none;html=1;rounded=0;exitX=1;exitY=0.3333333333333333;exitDx=0;exitDy=0;exitPerimeter=0;entryX=0;entryY=0.5;entryDx=0;entryDy=0;" edge="1" parent="1" source="lpoRtROx9iUJPAcO76Ek-10" target="lpoRtROx9iUJPAcO76Ek-13">
                    <mxGeometry width="50" height="50" relative="1" as="geometry">
                        <mxPoint x="42" y="93" as="sourcePoint"/>
                        <mxPoint x="138.78350000000023" y="50.38000000000011" as="targetPoint"/>
                    </mxGeometry>
                </mxCell>
                <mxCell id="lpoRtROx9iUJPAcO76Ek-15" value="" style="endArrow=none;html=1;rounded=0;fontSize=16;entryX=0;entryY=0.5;entryDx=0;entryDy=0;exitX=0.75;exitY=0.1;exitDx=0;exitDy=0;exitPerimeter=0;" edge="1" parent="1" source="IhjjagdQ4d-OvM7gtka2-3" target="IhjjagdQ4d-OvM7gtka2-18">
                    <mxGeometry width="50" height="50" relative="1" as="geometry">
                        <mxPoint x="50" y="529" as="sourcePoint"/>
                        <mxPoint x="256.7500000000009" y="512.8799999999999" as="targetPoint"/>
                    </mxGeometry>
                </mxCell>
            </root>
        </mxGraphModel>
    </diagram>
</mxfile>